<svg width="540" height="340" viewBox="0 0 540 340" fill="none" xmlns="http://www.w3.org/2000/svg">
<g clip-path="url(#clip0_446_27316)">
<path d="M467.305 193.682C467.305 193.682 436.378 218.422 450.11 274.624" stroke="#003566" stroke-width="2" stroke-linecap="round" stroke-linejoin="round"/>
<path d="M455.895 260.606C455.503 260.267 455.2 259.838 455.011 259.356C454.822 258.873 454.753 258.352 454.809 257.837C457.026 237.587 466.157 216.736 480.395 209.09C495.031 201.227 505.016 223.056 484.727 243.306C469.459 258.564 461.307 261.049 458.193 261.343C457.777 261.38 457.357 261.333 456.96 261.204C456.563 261.075 456.196 260.867 455.881 260.592L455.895 260.606Z" fill="#DFF5F3"/>
<path d="M441.49 273.995C441.49 273.995 437.094 258.095 423.732 256.943" stroke="#8D9DB5" stroke-width="2" stroke-linecap="round" stroke-linejoin="round"/>
<path d="M492.269 210.891C492.269 210.891 466.656 236.55 456.408 259.859" stroke="#003566" stroke-width="2" stroke-linecap="round" stroke-linejoin="round"/>
<path d="M487.726 238.728C487.726 238.728 477.199 238.379 465.855 243.323" stroke="#003566" stroke-width="2" stroke-linecap="round" stroke-linejoin="round"/>
<path d="M475.45 213.426C475.45 213.426 462.63 236.403 463.58 246.277" stroke="#003566" stroke-width="2" stroke-linecap="round" stroke-linejoin="round"/>
<path d="M474.882 251.276C474.882 251.276 465.277 250.927 459.023 254.806" stroke="#8D9DB5" stroke-width="2" stroke-linecap="round" stroke-linejoin="round"/>
<path d="M437.806 242.08C436.709 242.838 435.463 242.971 434.475 242.429C415.373 231.92 399.26 212.305 399.002 191.126C398.737 169.361 425.743 164.794 435.487 198.518C442.82 223.897 441.074 235.307 439.758 239.399C439.415 240.482 438.73 241.424 437.806 242.084V242.08Z" fill="#DFF5F3"/>
<path d="M436.577 242.712C436.577 242.712 428.798 189.67 406.436 177.583" stroke="#003566" stroke-width="2" stroke-linecap="round" stroke-linejoin="round"/>
<path d="M400.112 194.394C405 196.597 422.458 204.75 429.091 212.054" stroke="#003566" stroke-width="2" stroke-linecap="round" stroke-linejoin="round"/>
<path d="M434.378 198.263C435.076 205.738 435.774 218.757 432.674 222.839" stroke="#003566" stroke-width="2" stroke-linecap="round" stroke-linejoin="round"/>
<path d="M433.71 230.946C433.71 230.946 416.501 225.045 408.764 218.785" stroke="#003566" stroke-width="2" stroke-linecap="round" stroke-linejoin="round"/>
<path d="M425.895 251.542C426.294 248.605 425.841 246.119 424.884 245.989C423.927 245.859 422.827 248.135 422.429 251.071C422.03 254.008 422.483 256.494 423.44 256.624C424.398 256.754 425.497 254.479 425.895 251.542Z" fill="#D5DDE8"/>
<path d="M423.41 256.603C423.978 255.915 422.747 253.961 420.66 252.239C418.573 250.518 416.421 249.68 415.853 250.369C415.285 251.058 416.516 253.012 418.603 254.733C420.69 256.455 422.842 257.292 423.41 256.603Z" fill="#D5DDE8"/>
<path d="M428.957 255.57C431.56 254.206 433.304 252.401 432.852 251.539C432.4 250.676 429.923 251.083 427.32 252.447C424.717 253.811 422.974 255.616 423.426 256.479C423.878 257.341 426.354 256.935 428.957 255.57Z" fill="#D5DDE8"/>
<path d="M419.907 260.342C422.274 259.044 423.844 257.355 423.414 256.571C422.984 255.786 420.716 256.203 418.349 257.501C415.982 258.799 414.412 260.487 414.842 261.272C415.273 262.056 417.54 261.64 419.907 260.342Z" fill="#D5DDE8"/>
<path d="M427.503 265.582C428.311 265.213 428.052 262.908 426.924 260.435C425.796 257.961 424.225 256.255 423.417 256.624C422.608 256.993 422.867 259.297 423.995 261.771C425.124 264.244 426.694 265.951 427.503 265.582Z" fill="#D5DDE8"/>
<path d="M471.435 190.953C473.386 187.546 473.624 184.014 471.965 183.065C470.307 182.115 467.381 184.107 465.43 187.514C463.479 190.92 463.242 194.452 464.9 195.402C466.558 196.351 469.484 194.359 471.435 190.953Z" fill="#DFF5F3"/>
<path d="M471.552 198.731C475.442 198.652 478.565 197.025 478.525 195.098C478.486 193.17 475.301 191.671 471.411 191.749C467.52 191.828 464.398 193.455 464.437 195.383C464.476 197.311 467.661 198.81 471.552 198.731Z" fill="#DFF5F3"/>
<path d="M464.412 195.483C465.783 194.464 465.202 191.359 463.113 188.549C461.024 185.738 458.219 184.286 456.848 185.305C455.477 186.324 456.059 189.429 458.147 192.239C460.236 195.05 463.041 196.502 464.412 195.483Z" fill="#DFF5F3"/>
<path d="M466.967 201.049C468.397 197.844 468.294 194.682 466.737 193.988C465.18 193.294 462.759 195.329 461.33 198.534C459.9 201.739 460.003 204.9 461.56 205.594C463.117 206.289 465.538 204.254 466.967 201.049Z" fill="#DFF5F3"/>
<path d="M462.022 198.172C465.142 197.836 467.535 196.311 467.369 194.766C467.202 193.22 464.539 192.24 461.419 192.576C458.3 192.912 455.906 194.437 456.073 195.983C456.239 197.528 458.903 198.508 462.022 198.172Z" fill="#DFF5F3"/>
<path d="M478.749 277.48L465.831 336H424.789L411.871 277.48C411.131 274.135 413.219 270.846 416.085 270.846H474.532C477.402 270.853 479.476 274.135 478.749 277.48Z" fill="#ECEFF1"/>
<path d="M57.7891 63.1626C60.7382 61.2211 64.9096 60.0404 70.794 60.7966C70.794 60.7966 76.6066 41.9105 94.5121 49.1383C94.5121 49.1383 101.952 29.5726 121.719 38.1945L123.122 38.9043C128.869 42.7734 131.291 49.1383 131.291 49.1383C149.196 41.9105 155.002 60.7966 155.002 60.7966C173.139 58.4654 175 74.5401 175 74.5401H61.2128C55.0761 74.5401 52.6593 66.5352 57.7891 63.1626Z" fill="#ECEFF1"/>
<path d="M108.722 115.767C110.542 114.569 113.117 113.84 116.749 114.306C116.749 114.306 120.337 102.648 131.39 107.11C131.39 107.11 135.983 95.0325 148.184 100.355L149.05 100.793C152.598 103.181 154.093 107.11 154.093 107.11C165.146 102.648 168.729 114.306 168.729 114.306C179.925 112.867 181.074 122.79 181.074 122.79H110.835C107.047 122.79 105.555 117.849 108.722 115.767Z" fill="#ECEFF1"/>
<path d="M57 266C57 262.686 59.6863 260 63 260H123C126.314 260 129 262.686 129 266V332H57V266Z" fill="#B0BEC5"/>
<rect x="260" y="244" width="224" height="54" rx="16" fill="#B0BEC5"/>
<rect x="261" y="242" width="218" height="52" rx="15" fill="white" stroke="#B0BEC5" stroke-width="2"/>
<path fill-rule="evenodd" clip-rule="evenodd" d="M275 253.5C273.62 253.5 272.5 254.62 272.5 256C272.5 257.38 273.62 258.5 275 258.5C276.38 258.5 277.5 257.38 277.5 256C277.5 254.62 276.38 253.5 275 253.5V253.5ZM274.5 257.25L273.25 256L273.602 255.648L274.5 256.543L276.398 254.645L276.75 255L274.5 257.25V257.25Z" fill="#B0BEC5"/>
<path fill-rule="evenodd" clip-rule="evenodd" d="M275 265.5C273.62 265.5 272.5 266.62 272.5 268C272.5 269.38 273.62 270.5 275 270.5C276.38 270.5 277.5 269.38 277.5 268C277.5 266.62 276.38 265.5 275 265.5V265.5ZM274.5 269.25L273.25 268L273.602 267.648L274.5 268.543L276.398 266.645L276.75 267L274.5 269.25V269.25Z" fill="#B0BEC5"/>
<path fill-rule="evenodd" clip-rule="evenodd" d="M275 277.5C273.62 277.5 272.5 278.62 272.5 280C272.5 281.38 273.62 282.5 275 282.5C276.38 282.5 277.5 281.38 277.5 280C277.5 278.62 276.38 277.5 275 277.5V277.5ZM274.5 281.25L273.25 280L273.602 279.648L274.5 280.543L276.398 278.645L276.75 279L274.5 281.25V281.25Z" fill="#B0BEC5"/>
<rect opacity="0.32" x="283" y="253" width="181" height="6" rx="3" fill="#B0BEC5"/>
<rect opacity="0.32" x="283" y="265" width="181" height="6" rx="3" fill="#B0BEC5"/>
<rect opacity="0.32" x="283" y="277" width="129" height="6" rx="3" fill="#B0BEC5"/>
<path d="M320 88.5002C317.5 87.0002 307.5 84.5001 293 71.5001C284.667 68.6667 249 70.4999 244.5 97.5001C240 124.5 201 106 201 151.5C201 197 320.5 224 348.5 196.5C376.5 169 337 162 343.5 144C350 126 331 123.5 329.5 116C328 108.5 322.5 90.0002 320 88.5002Z" fill="#003566"/>
<path d="M202.5 336C201.167 306.5 201.5 241.4 213.5 217C253.167 218.667 333.8 226.8 339 246C344.2 265.2 341.167 314 339 336H202.5Z" fill="#485AFF"/>
<path d="M205.394 194.696C187.795 209.289 176.972 231.783 173.761 241.206L250.37 250.465L336.5 271.5C325.943 272.552 294.594 280.881 276.5 284.5C249 290 251.344 315.319 254.5 321C257.656 326.681 287.169 353.604 347.5 325C407.831 296.396 366.018 200.74 315.268 180.68C264.518 160.619 227.393 176.455 205.394 194.696Z" fill="#485AFF"/>
<path d="M333.509 269.706C328.902 252.705 326.367 246.01 320.49 237.294" stroke="#003566" stroke-width="2" stroke-linecap="round" stroke-linejoin="round"/>
<path d="M345 325.5C269.5 352 257.838 322.446 254.682 316.764C251.525 311.083 250.182 287.264 277.682 281.764C299.003 277.5 334.5 270.5 345.5 269.5" stroke="#003566" stroke-width="2" stroke-linecap="round"/>
<path d="M145 299.508C145 299.508 149.672 241.22 155.5 218C159.516 202 188 200 193.193 215.5C195 227 198 233 198 233L211.86 192L219 277.04L210.335 307.48C195.193 336.517 146.955 335.51 145 299.508Z" fill="#485AFF"/>
<path d="M152.5 234C152.689 233.168 153.428 227.215 154.082 224.5C156.531 214.331 160.249 204.576 175.5 205.5C192 206.5 195 215.5 197 226.5C198.6 235.3 202.333 255.833 204 265" stroke="#003566" stroke-width="2" stroke-linecap="round" stroke-linejoin="round"/>
<path d="M302.5 99.0001C297.255 111.757 265.791 121.17 252 115.5C238.208 109.83 235.469 88.6959 241.234 77.098C247 65.5001 260.297 60.2337 277.5 63.5001C294.702 66.7665 307.744 86.2435 302.5 99.0001Z" fill="#003566"/>
<path d="M258.419 173.717L262.657 157.056C264.661 149.177 272.255 144.054 280.311 145.145L294.125 147.017L292.392 178.868C291.884 188.197 283.525 195.108 274.267 193.854L271.777 193.516C262.304 192.233 256.062 182.982 258.419 173.717Z" fill="white" stroke="#003566" stroke-width="2"/>
<rect y="332" width="540" height="8" rx="4" fill="#ECEFF1"/>
<ellipse cx="242.769" cy="121.444" rx="9.14604" ry="11.2361" transform="rotate(7.89716 242.769 121.444)" fill="white" stroke="#003566" stroke-width="2" stroke-linecap="round"/>
<path d="M242.46 136.097C240.497 127.894 238.13 109.01 244.365 99.0987C249.084 99.585 258.603 100.375 258.932 99.6463L242.46 136.097Z" fill="#003566"/>
<ellipse cx="274.725" cy="122.208" rx="32.5" ry="46" transform="rotate(14.3833 274.725 122.208)" fill="white" stroke="#003566" stroke-width="2" stroke-linecap="round"/>
<path d="M278.302 145.082C271.028 146.274 266.887 146.295 259.022 145.178C259.325 146.995 261.752 150.658 269.046 150.772C276.34 150.886 278.256 147.026 278.302 145.082Z" fill="white" stroke="#003566" stroke-width="2" stroke-linecap="round" stroke-linejoin="round"/>
<path d="M267.529 139.102L262.142 137.631C262.011 137.596 261.89 137.532 261.788 137.443C261.685 137.355 261.604 137.245 261.55 137.121C261.497 136.997 261.472 136.862 261.477 136.727C261.482 136.592 261.518 136.46 261.582 136.341L269.003 122.442" stroke="#003566" stroke-width="2" stroke-linecap="round" stroke-linejoin="round"/>
<path d="M288.147 119.348C288.147 119.348 284.354 113.888 279.49 116.537" stroke="#003566" stroke-width="2" stroke-linecap="round" stroke-linejoin="round"/>
<path d="M265.834 114.815C265.834 114.815 261.739 109.441 257 112.172" stroke="#003566" stroke-width="2" stroke-linecap="round" stroke-linejoin="round"/>
<path d="M284.051 127.164C284.418 125.356 283.733 123.691 282.521 123.445C281.31 123.199 280.031 124.466 279.664 126.274C279.297 128.082 279.982 129.747 281.194 129.993C282.405 130.238 283.685 128.972 284.051 127.164Z" fill="#003566"/>
<path d="M259.038 122.173C259.406 120.358 258.726 118.688 257.519 118.443C256.311 118.199 255.034 119.472 254.666 121.287C254.298 123.103 254.979 124.773 256.186 125.017C257.393 125.262 258.67 123.989 259.038 122.173Z" fill="#003566"/>
<path d="M281.102 97.057C275.368 88.5823 249.067 96.0821 251 78C301.5 65.4997 311.054 71.5497 321 89.4997C330.946 107.45 322 140 301.5 157C302.308 138.491 302.603 125.557 292.103 116.95C283.568 109.954 287.102 103.557 281.102 97.057Z" fill="#003566"/>
<ellipse cx="310.289" cy="134.725" rx="9.14604" ry="11.8922" transform="rotate(24.3087 310.289 134.725)" fill="white" stroke="#003566" stroke-width="2" stroke-linecap="round"/>
<circle cx="254" cy="122" r="10" stroke="#FFC300" stroke-width="2" stroke-linecap="round" stroke-linejoin="round"/>
<path d="M264 121.105C268 119.314 271.5 119.762 274 122" stroke="#FFC300" stroke-width="2" stroke-linecap="round" stroke-linejoin="round"/>
<circle cx="282" cy="128" r="10" stroke="#FFC300" stroke-width="2" stroke-linecap="round" stroke-linejoin="round"/>
<path d="M219 251C215.8 271.8 209.667 295 207 304" stroke="#003566" stroke-width="2" stroke-linecap="round" stroke-linejoin="round"/>
<path d="M292.5 128.5L303 127.5" stroke="#FFC300" stroke-width="2" stroke-linecap="round" stroke-linejoin="round"/>
<path d="M190.651 323C189.124 323 187.73 322.13 187.059 320.758L151.818 248.758C150.518 246.101 152.452 243 155.411 243H201.462C202.991 243 204.386 243.872 205.057 245.246L240.192 317.246C241.489 319.903 239.554 323 236.597 323H190.651Z" fill="#E3AC06"/>
<path d="M170.65 323C169.123 323 167.729 322.13 167.058 320.758L131.818 248.758C130.518 246.101 132.452 243 135.411 243L195.463 243C196.992 243 198.387 243.872 199.058 245.246L234.192 317.246C235.489 319.903 233.554 323 230.597 323H170.65Z" fill="#FFC300"/>
<path d="M179.29 290.677C178.397 289.785 178.397 288.337 179.29 287.445L190.065 276.67C190.957 275.777 192.405 275.777 193.297 276.67C194.19 277.563 194.19 279.01 193.297 279.902L182.522 290.677C181.63 291.57 180.183 291.57 179.29 290.677Z" fill="#FFEDB3"/>
<path d="M175.017 286.405C174.125 285.512 174.125 284.065 175.017 283.172L180.405 277.785C181.297 276.892 182.745 276.892 183.637 277.785C184.53 278.677 184.53 280.125 183.637 281.017L178.25 286.405C177.357 287.297 175.91 287.297 175.017 286.405Z" fill="#FFEDB3"/>
<path d="M170.669 282.057C169.777 281.164 169.777 279.717 170.669 278.824L172.824 276.669C173.717 275.777 175.164 275.777 176.057 276.669C176.95 277.562 176.95 279.009 176.057 279.902L173.902 282.057C173.009 282.95 171.562 282.95 170.669 282.057Z" fill="#FFEDB3"/>
<path d="M244 118.5V111" stroke="#FFC300" stroke-width="2" stroke-linecap="round" stroke-linejoin="round"/>
<path d="M222.459 296.461L232.554 290.308L251.236 297.936C251.236 297.936 262.451 294.388 271 299C279.835 304.353 276.5 320.5 266.5 320.5C255.005 319.826 248.556 319.175 248.556 319.175C241.035 319.352 226.975 319.301 216.827 317.947C212.808 317.411 205.923 310.659 205.439 306.836L222.459 296.461Z" fill="white" stroke="#003566" stroke-width="2" stroke-linecap="round" stroke-linejoin="round"/>
<path d="M224.927 286.212C226.749 286.533 227.576 287.3 233.558 290.569L228.492 295.847C228.63 294.124 226.728 290.854 224.366 289.078C222.986 288.04 223.223 285.912 224.927 286.212Z" fill="white"/>
<path d="M233.667 290.749C227.593 287.327 226.984 286.615 225.143 286.262C223.42 285.932 223.211 288.105 224.616 289.184C227.022 291.031 227.664 291.799 227.548 293.558" stroke="#003566" stroke-width="2" stroke-linecap="round" stroke-linejoin="round"/>
<path d="M205.966 312.852C209.237 314.951 213.413 317.355 216.335 317.835L207.022 309.124C207.022 309.124 202.843 307.227 200.274 305.017C197.705 302.808 196.749 301.514 196.426 301.711C196.103 301.908 197.183 305.96 199.107 307.613C201.031 309.266 202.955 310.919 205.966 312.852Z" fill="white"/>
<path d="M216.335 317.835C213.413 317.355 209.237 314.951 205.966 312.852C202.955 310.919 201.031 309.266 199.107 307.613C197.183 305.96 196.103 301.908 196.426 301.711C196.749 301.514 197.705 302.808 200.274 305.017C202.843 307.227 207.022 309.124 207.022 309.124" stroke="#003566" stroke-width="2" stroke-linecap="round" stroke-linejoin="round"/>
<path d="M214.024 312.699L214.143 312.746L215.449 308.324L202.342 300.513C202.342 300.513 198.184 297.381 196.551 295.952C194.918 294.522 191.803 293.167 190.065 294.186C188.327 295.205 190.296 297.235 191.57 298.079C192.844 298.922 198.982 304.077 203.151 307.202C206.451 309.676 210.341 311.229 214.024 312.699Z" fill="white"/>
<path d="M214.143 312.746C210.425 311.262 206.487 309.702 203.151 307.202C198.982 304.077 192.844 298.922 191.57 298.079C190.296 297.235 188.327 295.205 190.065 294.186C191.803 293.167 194.918 294.522 196.551 295.952C198.184 297.381 202.342 300.513 202.342 300.513" stroke="#003566" stroke-width="2" stroke-linecap="round" stroke-linejoin="round"/>
<path d="M203.387 301.433C206.722 303.933 211.403 306.531 215.768 307.828L219.337 302.868C212.814 304.231 198.835 291.988 196.786 290.182C194.738 288.376 192.038 287.397 190.3 288.416C188.562 289.435 190.531 291.465 191.805 292.309C193.08 293.153 199.217 298.307 203.387 301.433Z" fill="white"/>
<path d="M215.768 307.828C211.403 306.531 206.722 303.933 203.387 301.433C199.217 298.307 193.08 293.153 191.805 292.309C190.531 291.465 188.562 289.435 190.3 288.416C192.038 287.397 194.738 288.376 196.786 290.182C198.835 291.988 212.814 304.231 219.337 302.868" stroke="#003566" stroke-width="2" stroke-linecap="round" stroke-linejoin="round"/>
<path d="M211.891 300C213.601 301.282 216.903 302.572 220.069 303.102L223.677 296.659C218.252 298.11 207.495 290.274 205.29 288.749C203.085 287.224 200.542 285.965 198.804 286.983C197.066 288.002 199.035 290.032 200.309 290.876C201.584 291.72 207.721 296.874 211.891 300Z" fill="white"/>
<path d="M219.963 302.929C216.797 302.399 213.495 301.109 211.784 299.827C207.615 296.701 201.477 291.547 200.203 290.703C198.929 289.859 196.96 287.829 198.698 286.81C200.436 285.791 202.979 287.051 205.184 288.576C207.389 290.101 217.402 297.972 222.828 296.52" stroke="#003566" stroke-width="2" stroke-linecap="round" stroke-linejoin="round"/>
<path d="M163.5 216C163.5 221.328 165.862 226.623 175.452 226.623C187.5 226.623 187.5 216.5 187.5 216.5C187.5 215.5 186.107 177.237 185.574 175.106C185.041 172.974 182.378 171.376 178.648 167.114C174.919 162.852 163.198 154.328 161.6 154.328C160.001 154.328 159.469 156.459 157.87 158.59C156.272 160.721 154.674 160.721 152.543 162.319C150.412 163.917 149.346 175.638 148.813 179.9C148.281 184.163 155.207 193.22 156.272 193.752C157.125 194.179 158.048 193.93 158.403 193.752C158.581 194.463 159.469 196.203 161.6 197.482C163.731 198.76 165.329 198.725 165.862 198.547C165.862 198.902 163.5 211.738 163.5 216Z" fill="white" stroke="#003566" stroke-width="2" stroke-linecap="round" stroke-linejoin="round"/>
<path d="M162.665 162.319V171.376C164.263 172.974 167.353 176.597 166.927 178.302C166.501 180.007 164.974 180.078 164.263 179.9" stroke="#003566" stroke-width="2" stroke-linecap="round" stroke-linejoin="round"/>
<path d="M155.207 162.319C155.029 165.693 154.887 172.655 155.74 173.507C156.805 174.573 162.666 176.704 164.264 180.433C165.862 184.163 164.797 185.228 163.731 185.761" stroke="#003566" stroke-width="2" stroke-linecap="round" stroke-linejoin="round"/>
<path d="M150.412 175.105C150.412 176.704 150.412 179.9 152.01 180.433C153.609 180.966 164.797 184.695 163.731 186.826C162.666 188.957 161.067 188.425 160.002 188.425C159.149 188.425 153.254 185.938 150.412 184.695" stroke="#003566" stroke-width="2" stroke-linecap="round" stroke-linejoin="round"/>
<path d="M158.403 187.892C159.468 190.023 160.534 192.154 159.468 193.22C158.616 194.072 158.048 194.285 157.87 194.285" stroke="#003566" stroke-width="2" stroke-linecap="round" stroke-linejoin="round"/>
<path d="M175.452 150.582C172.042 155.271 153.431 178.464 144.551 189.474L142.365 194.784C141.948 195.797 143.147 196.704 144.008 196.027L148.281 192.671C157.515 180.595 177.05 156.938 179.181 153.246C181.312 149.555 177.828 147.315 175.452 150.582Z" fill="#FFC300"/>
<path d="M168.464 157.524C168.89 157.524 173.259 161.076 175.39 162.852L171.128 169.245L164.734 163.917C164.379 163.562 163.882 162.319 164.734 160.188C165.8 157.524 167.931 157.524 168.464 157.524Z" fill="white"/>
<path d="M183.321 171.995C181.723 170.397 176.396 164.537 174.797 163.471C173.199 162.406 167.338 157.611 165.207 156.545C163.076 155.48 160.945 164.537 168.404 168.266C172.666 170.397 172.666 173.594 173.732 176.257C172.489 177.856 170.109 182.331 170.535 187.446C170.961 192.56 173.909 195.97 175.33 197.035" stroke="#003566" stroke-width="2" stroke-linecap="round" stroke-linejoin="round"/>
<path d="M29 266C29 262.686 31.6863 260 35 260H95C98.3137 260 101 262.686 101 266V332H29V266Z" fill="#ECEFF1"/>
<rect opacity="0.32" x="35" y="266" width="17" height="6" rx="3" fill="#B0BEC5"/>
<rect opacity="0.32" x="35" y="278" width="54" height="6" rx="3" fill="#B0BEC5"/>
<rect opacity="0.32" x="35" y="287" width="18" height="6" rx="3" fill="#B0BEC5"/>
<path d="M57 260H77V288.159C77 289.777 75.1786 290.725 73.8531 289.797L68.1469 285.803C67.4583 285.321 66.5417 285.321 65.8531 285.803L60.1469 289.797C58.8214 290.725 57 289.777 57 288.159V260Z" fill="#78909C"/>
<circle opacity="0.32" cx="89" cy="320" r="6" fill="#B0BEC5"/>
<circle cx="91" cy="171" r="20" fill="#B0BEC5"/>
<circle cx="89" cy="168" r="19" fill="white" stroke="#B0BEC5" stroke-width="2"/>
<path fill-rule="evenodd" clip-rule="evenodd" d="M79 168C79 162.48 83.48 158 89 158C94.52 158 99 162.48 99 168C99 173.52 94.52 178 89 178C83.48 178 79 173.52 79 168ZM90.41 174.67V174.09C92.15 173.76 93.52 172.76 93.54 170.93C93.54 168.41 91.38 167.54 89.36 167.02C87.34 166.5 86.69 165.95 86.69 165.11C86.69 164.15 87.59 163.47 89.09 163.47C90.35 163.47 90.98 163.96 91.21 164.72C91.31 165.08 91.61 165.34 91.98 165.34H92.24C92.83 165.34 93.25 164.76 93.05 164.21C92.67 163.15 91.8 162.29 90.42 161.95V161.33C90.42 160.6 89.82 160 89.09 160H89.08C88.35 160 87.75 160.6 87.75 161.33V161.93C86.03 162.3 84.64 163.42 84.64 165.14C84.64 167.19 86.34 168.21 88.82 168.81C91.05 169.34 91.49 170.12 91.49 170.95C91.49 171.56 91.05 172.54 89.09 172.54C87.63 172.54 86.87 172.02 86.58 171.27C86.44 170.92 86.14 170.67 85.77 170.67H85.53C84.93 170.67 84.5 171.28 84.73 171.83C85.23 173.06 86.41 173.79 87.74 174.07V174.67C87.74 175.4 88.34 176 89.07 176H89.08C89.81 176 90.41 175.4 90.41 174.67Z" fill="#00B6A4"/>
<path d="M385.257 104C396.303 104 405.257 95.0457 405.257 84C405.257 72.9543 396.303 64 385.257 64C374.211 64 365.257 72.9543 365.257 84C365.257 88.3926 366.673 92.4545 369.073 95.754L361.359 102.234C360.644 102.835 361.069 104 362.002 104H384.257V103.975C384.588 103.992 384.921 104 385.257 104Z" fill="#B0BEC5" stroke="#B0BEC5"/>
<path d="M383.257 101C394.303 101 403.257 92.0457 403.257 81C403.257 69.9543 394.303 61 383.257 61C372.211 61 363.257 69.9543 363.257 81C363.257 85.3926 364.673 89.4545 367.073 92.754L359.359 99.2343C358.644 99.8346 359.069 101 360.002 101H382.257V100.975C382.588 100.992 382.921 101 383.257 101Z" fill="white" stroke="#B0BEC5" stroke-width="2"/>
<path fill-rule="evenodd" clip-rule="evenodd" d="M383.257 71C377.737 71 373.257 75.48 373.257 81C373.257 86.52 377.737 91 383.257 91C388.777 91 393.257 86.52 393.257 81C393.257 75.48 388.777 71 383.257 71V71ZM382.256 88.9304C378.306 88.4404 375.256 85.0804 375.256 81.0004C375.256 80.3804 375.336 79.7904 375.466 79.2104L380.256 84.0004V85.0004C380.256 86.1004 381.156 87.0004 382.256 87.0004V88.9304V88.9304ZM389.157 86.3903C388.897 85.5803 388.157 85.0003 387.257 85.0003H386.257V82.0003C386.257 81.4503 385.807 81.0003 385.257 81.0003H379.257V79.0003H381.257C381.807 79.0003 382.257 78.5503 382.257 78.0003V76.0003H384.257C385.357 76.0003 386.257 75.1003 386.257 74.0003V73.5903C389.187 74.7803 391.257 77.6503 391.257 81.0003C391.257 83.0803 390.457 84.9703 389.157 86.3903V86.3903Z" fill="#7D50FF"/>
</g>
<defs>
<clipPath id="clip0_446_27316">
<rect width="540" height="340" fill="white"/>
</clipPath>
</defs>
</svg>
